# xmcd
#
# Track frame offsets:
#	150
#	17855
#	30133
#	42331
#	63996
#	81115
#	104591
#	115842
#	131352
#	146664
#	164971
#	177430
#	193111
#	203996
#
# Disc length: 2896 seconds
# Revision: 0
# Processed by: cddbd v1.5.2PL0 Copyright (c) Steve Scherf et al.
# Submitted via: dBpowerAMP V12.0
#
DISCID=c80b4e0e
DTITLE=Rebel - Writings of a Rebel
DYEAR=2012
DGENRE=Country
TTITLE0=Hoofbeats of a Horse
TTITLE1=Bushfires
TTITLE2=Beyond The Stars
TTITLE3=Sandakan
TTITLE4=Long Haul Lady
TTITLE5=Waitin Out The Storm
TTITLE6=Rodeo Royalty
TTITLE7=Together We Can Fly
TTITLE8=This Land I Love
TTITLE9=Call of The Bushland
TTITLE10=On Eagles Wings
TTITLE11=Angel's Don't Cry
TTITLE12=That's When I'll Stop Loving You
TTITLE13=Makin Ends Meet
EXTD=
EXTT0=
EXTT1=
EXTT2=
EXTT3=
EXTT4=
EXTT5=
EXTT6=
EXTT7=
EXTT8=
EXTT9=
EXTT10=
EXTT11=
EXTT12=
EXTT13=
PLAYORDER=
